<?xml version="1.0" standalone="no"?>
<!DOCTYPE svg PUBLIC "-//W3C//DTD SVG 20010904//EN"
 "http://www.w3.org/TR/2001/REC-SVG-20010904/DTD/svg10.dtd">
<svg version="1.0" xmlns="http://www.w3.org/2000/svg"
 width="180.000000pt" height="180.000000pt" viewBox="0 0 180.000000 180.000000"
 preserveAspectRatio="xMidYMid meet">
<rect rx="40" ry="40" />
<g transform="translate(0.000000,180.000000) scale(0.100000,-0.100000)"
fill="#0c4c26" stroke="none">
<path d="M0 900 l0 -900 900 0 900 0 0 900 0 900 -900 0 -900 0 0 -900z m1184
408 l245 -193 1 -87 0 -87 -37 -10 c-189 -48 -285 -76 -387 -111 -65 -22 -120
-39 -122 -37 -7 7 181 200 245 252 33 28 61 55 61 60 0 6 -20 33 -43 60 l-44
49 -64 -18 c-101 -28 -342 -123 -488 -192 -74 -35 -136 -64 -138 -64 -1 0 -3
42 -3 93 l1 92 252 198 c138 109 257 195 263 193 7 -3 123 -92 258 -198z
m-383 -415 c-54 -54 -126 -133 -160 -176 l-61 -79 32 -40 c18 -22 40 -49 48
-60 16 -19 17 -18 97 16 166 71 595 206 655 206 17 0 18 -12 18 -185 l0 -185
-510 0 -510 0 0 195 0 195 73 37 c83 42 386 172 404 172 6 1 -32 -43 -86 -96z"/>
</g>
</svg>
